:SAMPLES-PER-SECOND 30
:FULLY-SPECIFIED
:DEGREES
529
root  52.8511 33.3756 -60.1147 -166.429 -80.0232 177.507
RightUpLeg  -40.2294 -48.2023 15.8699
RightLeg  40.902 -20.1837 -14.6908
RightFoot  -5.62864 0.102666 2.78462
RightToes  -11.9006 -0.0410533 -0.108731
Spine  -0.461741 -0.107049 1.02352
Spine1  -0.953618 -0.354808 2.564
HEad  -65.1844 20.5214 -0.173959
LeftShoulder1  -1.94126e-019 -3.10601e-018 -2.51263e-017
LeftArm  -22.0605 22.5711 -67.4353
LeftForeArm  27.7096 -19.2142 -3.37813
LeftHand  -0.391084 1.12604 10.6116
RightShoulder  -4.96962e-017 0 -2.36833e-017
RightArm  -45.9207 -23.1534 62.1132
RightForeArm  51.0508 10.6514 1.56886
RightHand  0.0524387 -5.89355 -15.6869
LeftUpLeg  -10.7716 11.0391 -6.26436
LeftLeg  23.8779 20.6865 7.40054
LeftFoot  -15.7037 -0.869641 -6.13829
LeftToes  -3.85426 1.87998e-006 4.79886e-008
530
root  53.5147 33.4873 -59.7768 -157.076 -85.4287 168.528
RightUpLeg  -39.6175 -45.2713 12.1767
RightLeg  42.2193 -18.3923 -14.1166
RightFoot  -2.39966 0.0105606 1.20254
RightToes  -16.8712 -0.0647125 -0.151202
Spine  -0.381242 0.0630927 0.717963
Spine1  -0.786903 0.0231442 1.9591
HEad  -65.6301 17.8142 0.589191
LeftShoulder1  -1.94126e-019 -3.10601e-018 -2.51263e-017
LeftArm  -24.0729 19.34 -68.9911
LeftForeArm  30.0402 -18.6942 -3.37283
LeftHand  -0.395144 1.34808 11.2904
RightShoulder  -4.96962e-017 0 -2.36833e-017
RightArm  -47.219 -22.3043 65.8661
RightForeArm  54.9648 9.66107 1.53329
RightHand  0.0138955 -5.61575 -15.1384
LeftUpLeg  -12.6973 10.8205 -6.4277
LeftLeg  23.7071 15.8945 5.69684
LeftFoot  -14.8135 -0.58393 -4.32806
LeftToes  -5.61231 1.87998e-006 4.79886e-008
531
root  54.0391 33.6659 -59.5151 -113.062 -89.3509 124.784
RightUpLeg  -35.8414 -38.231 7.24328
RightLeg  40.5914 -15.9828 -11.6961
RightFoot  -0.47192 -0.00174176 0.356501
RightToes  -18.7025 -0.0743443 -0.166309
Spine  -0.346344 0.722791 0.76906
Spine1  -0.713955 1.40068 2.05871
HEad  -64.8904 14.8884 0.606929
LeftShoulder1  -1.94126e-019 -3.10601e-018 -2.51263e-017
LeftArm  -25.5227 17.5243 -71.6861
LeftForeArm  31.1471 -19.0828 -3.47777
LeftHand  -0.386648 1.68389 12.0124
RightShoulder  -4.96962e-017 0 -2.36833e-017
RightArm  -43.5711 -21.6969 68.8607
RightForeArm  55.2834 10.226 1.55208
RightHand  -0.00192386 -5.50764 -14.1501
LeftUpLeg  -13.6247 8.12959 -6.06137
LeftLeg  22.9301 14.7505 5.0773
LeftFoot  -13.9384 -0.476054 -3.73141
LeftToes  -5.62844 1.87998e-006 4.79886e-008
532
root  54.4261 33.8484 -59.3035 9.28784 -86.7025 2.50616
RightUpLeg  -30.6266 -28.5796 2.2885
RightLeg  35.9392 -11.7088 -7.30979
RightFoot  -0.412661 -0.00169608 0.297272
RightToes  -21.088 -0.0876066 -0.185512
Spine  -0.352499 1.29466 0.93712
Spine1  -0.71487 2.61741 2.41091
HEad  -63.5898 12.4757 0.265186
LeftShoulder1  -1.94126e-019 -3.10601e-018 -2.51263e-017
LeftArm  -26.0169 17.6383 -74.8229
LeftForeArm  30.2883 -19.9342 -3.63835
LeftHand  -0.3614 1.9525 12.0645
RightShoulder  -4.96962e-017 0 -2.36833e-017
RightArm  -35.9941 -20.8066 70.8216
RightForeArm  54.1175 12.1151 1.48958
RightHand  -0.249723 -2.97554 -11.5405
LeftUpLeg  -13.6605 2.7909 -5.61824
LeftLeg  21.5639 16.4502 5.21746
LeftFoot  -12.9579 -0.456964 -3.86068
LeftToes  -4.37665 1.87998e-006 4.79886e-008
